<?xml version="1.0" encoding="UTF-8"?>
<svg id="Layer_1" xmlns="http://www.w3.org/2000/svg" version="1.1" viewBox="0 0 315.85 423.25">
  <!-- Generator: Adobe Illustrator 30.5.1, SVG Export Plug-In . SVG Version: 2.1.4 Build 3)  -->
  <defs>
    <style>
      .st0 {
        font-family: MyriadPro-Cond, 'Myriad Pro';
      }

      .st0, .st1, .st2, .st3, .st4, .st5, .st6, .st7 {
        isolation: isolate;
      }

      .st0, .st1, .st3 {
        font-size: 12px;
      }

      .st1, .st3, .st4, .st5, .st6, .st7 {
        font-family: ArialMT, Arial;
      }

      .st1, .st4, .st5, .st7 {
        fill: #0067b0;
      }

      .st8 {
        stroke-linecap: square;
        stroke-miterlimit: 10;
      }

      .st8, .st9 {
        stroke: #231f20;
      }

      .st8, .st9, .st10 {
        fill: none;
        stroke-width: .25px;
      }

      .st9, .st10 {
        stroke-linejoin: round;
      }

      .st10 {
        stroke: #ed1c24;
        stroke-dasharray: 30 8 8 8;
      }

      .st4 {
        font-size: 25px;
      }

      .st11 {
        fill: #c1c6c5;
      }

      .st5, .st6 {
        font-size: 10px;
      }

      .st7 {
        font-size: 18px;
      }
    </style>
  </defs>
  <g id="Structure">
    <polyline class="st9" points="243.73 99.13 243.73 423.12 72.73 423.12 72.73 99.13 .73 99.13 .73 .12 72.73 .12"/>
    <polyline class="st9" points="243.73 .12 315.73 .12 315.73 99.13 243.73 99.13"/>
    <line class="st10" x1="243.73" y1="99.13" x2="243.73" y2=".12"/>
    <line class="st10" x1="72.73" y1="99.13" x2="72.73" y2=".12"/>
    <line class="st10" x1="72.73" y1="99.13" x2="243.73" y2="99.13"/>
    <line class="st9" x1="236.98" y1="198.12" x2="227.98" y2="198.12"/>
    <line class="st9" x1="223.48" y1="198.12" x2="214.48" y2="198.12"/>
    <line class="st9" x1="209.98" y1="198.12" x2="200.98" y2="198.12"/>
    <line class="st9" x1="196.48" y1="198.12" x2="187.48" y2="198.12"/>
    <line class="st9" x1="182.98" y1="198.12" x2="173.98" y2="198.12"/>
    <line class="st9" x1="169.48" y1="198.12" x2="160.48" y2="198.12"/>
    <line class="st9" x1="155.98" y1="198.12" x2="146.98" y2="198.12"/>
    <line class="st9" x1="142.48" y1="198.12" x2="133.48" y2="198.12"/>
    <line class="st9" x1="128.98" y1="198.12" x2="119.98" y2="198.12"/>
    <line class="st9" x1="115.48" y1="198.12" x2="106.48" y2="198.12"/>
    <line class="st9" x1="101.98" y1="198.12" x2="92.98" y2="198.12"/>
    <line class="st9" x1="88.48" y1="198.12" x2="79.48" y2="198.12"/>
    <line class="st9" x1="72.73" y1=".12" x2="243.73" y2=".12"/>
  </g>
  <g id="Other">
    <g class="st2">
      <g class="st2">
        <g class="st2">
          <g class="st2">
            <text class="st7" transform="translate(197.28 93.34) rotate(-180)"><tspan x="0" y="0">1st Fold</tspan></text>
          </g>
        </g>
      </g>
    </g>
    <g class="st2">
      <g class="st2">
        <g class="st2">
          <g class="st2">
            <text class="st1" transform="translate(239.41 26.72) rotate(90)"><tspan x="0" y="0">2nd Fold</tspan></text>
          </g>
        </g>
      </g>
    </g>
    <g class="st2">
      <g class="st2">
        <g class="st2">
          <g class="st2">
            <text class="st1" transform="translate(67.69 26.72) rotate(90)"><tspan x="0" y="0">2nd Fold</tspan></text>
          </g>
        </g>
      </g>
    </g>
    <g>
      <g class="st2">
        <g class="st2">
          <g class="st2">
            <g class="st2">
              <text class="st5" transform="translate(304.93 25.29) rotate(90)"><tspan x="0" y="0">Tape down</tspan></text>
            </g>
          </g>
        </g>
      </g>
      <g class="st2">
        <g class="st2">
          <g class="st2">
            <g class="st2">
              <text class="st5" transform="translate(294.13 23.35) rotate(90)"><tspan x="0" y="0">on backside</tspan></text>
            </g>
          </g>
        </g>
      </g>
    </g>
    <g>
      <g class="st2">
        <g class="st2">
          <g class="st2">
            <g class="st2">
              <text class="st5" transform="translate(14.05 25.29) rotate(90)"><tspan x="0" y="0">Tape down</tspan></text>
            </g>
          </g>
        </g>
      </g>
      <g class="st2">
        <g class="st2">
          <g class="st2">
            <g class="st2">
              <text class="st5" transform="translate(3.25 23.35) rotate(90)"><tspan x="0" y="0">on backside</tspan></text>
            </g>
          </g>
        </g>
      </g>
    </g>
    <g>
      <rect class="st11" x="128.97" y="178.03" width="58.51" height="12.24"/>
      <polyline class="st8" points="187.48 178.03 128.97 178.03 128.97 190.26 187.48 190.26 187.48 178.03"/>
      <g>
        <line class="st8" x1="158.23" y1="190.26" x2="158.23" y2="193.15"/>
        <line class="st8" x1="157.26" y1="192.28" x2="158.23" y2="196.68"/>
        <line class="st8" x1="159.19" y1="192.28" x2="158.23" y2="196.68"/>
        <line class="st8" x1="159.19" y1="192.28" x2="157.26" y2="192.28"/>
      </g>
      <g class="st2">
        <g class="st2">
          <g class="st2">
            <g class="st2">
              <text class="st5" transform="translate(185.32 180.57) rotate(-180)"><tspan x="0" y="0">Fold to Here</tspan></text>
            </g>
          </g>
        </g>
      </g>
    </g>
    <g class="st2">
      <g class="st2">
        <g class="st2">
          <g class="st2">
            <text class="st4" transform="translate(211.44 222.09) rotate(-180)"><tspan x="0" y="0">WAYBILL</tspan></text>
          </g>
        </g>
      </g>
    </g>
    <line class="st9" x1="72.73" y1="297.12" x2="243.73" y2="297.12"/>
  </g>
  <g class="st2">
    <g class="st2">
      <g class="st2">
        <text class="st0" transform="translate(180.81 395.26) rotate(-180)"><tspan x="0" y="0">PHOTO_BOX</tspan></text>
      </g>
    </g>
  </g>
  <g class="st2">
    <g class="st2">
      <g class="st2">
        <text class="st3" transform="translate(238.09 362.74) rotate(-180)"><tspan x="0" y="0">ROAD_NAME</tspan></text>
      </g>
    </g>
  </g>
  <g class="st2">
    <g class="st2">
      <g class="st2">
        <text class="st3" transform="translate(238.09 349.74) rotate(-180)"><tspan x="0" y="0">CAR_NUMBER</tspan></text>
      </g>
    </g>
  </g>
  <g class="st2">
    <g class="st2">
      <g class="st2">
        <text class="st3" transform="translate(238.09 335.74) rotate(-180)"><tspan x="0" y="0">TYPE</tspan></text>
      </g>
    </g>
  </g>
  <g class="st2">
    <g class="st2">
      <g class="st2">
        <text class="st3" transform="translate(128.09 320.74) rotate(-180)"><tspan x="0" y="0">LENGTH</tspan></text>
      </g>
    </g>
  </g>
  <g class="st2">
    <g class="st2">
      <g class="st2">
        <text class="st3" transform="translate(238.09 321.74) rotate(-180)"><tspan x="0" y="0">COLOR</tspan></text>
      </g>
    </g>
  </g>
  <g class="st2">
    <g class="st2">
      <g class="st2">
        <text class="st6" transform="translate(237.96 306.85) rotate(-180)"><tspan x="0" y="0">NOTES</tspan></text>
      </g>
    </g>
  </g>
  <line class="st9" x1="85.74" y1="255.73" x2="229.74" y2="255.73"/>
  <g class="st2">
    <text class="st3" transform="translate(224.99 274.76) rotate(-180)"><tspan x="0" y="0">When Empty, Return To:</tspan></text>
  </g>
</svg>