<?xml version="1.0" encoding="UTF-8"?>
<svg xmlns="http://www.w3.org/2000/svg" width="11in" height="8.5in" version="1.1" viewBox="0 0 792 612">
  <!-- Generator: Adobe Illustrator 30.5.1, SVG Export Plug-In . SVG Version: 2.1.4 Build 3)  -->
  <g id="Graphics">
    <text transform="translate(253.7 140.66) rotate(-180)" fill="#231f20" font-family="ArialMT, Arial" font-size="12"><tspan x="0" y="0">1st Fold</tspan></text>
    <text transform="translate(306.28 71.89) rotate(90)" fill="#231f20" font-family="ArialMT, Arial" font-size="12"><tspan x="0" y="0">2nd Fold</tspan></text>
    <g>
      <line x1="224.14" y1="237.45" x2="225.1" y2="241.86" fill="#231f20"/>
      <line x1="226.06" y1="237.45" x2="225.1" y2="241.86" fill="#231f20"/>
    </g>
    <text transform="translate(252.2 225.72) rotate(-180)" fill="#231f20" font-family="ArialMT, Arial" font-size="10"><tspan x="0" y="0">Fold to Here</tspan></text>
    <text transform="translate(134.56 71.89) rotate(90)" fill="#231f20" font-family="ArialMT, Arial" font-size="12"><tspan x="0" y="0">2nd Fold</tspan></text>
    <g>
      <text transform="translate(385.3 70.46) rotate(90)" fill="#231f20" font-family="ArialMT, Arial" font-size="10"><tspan x="0" y="0">Tape down</tspan></text>
      <text transform="translate(374.5 68.53) rotate(90)" fill="#231f20" font-family="ArialMT, Arial" font-size="10"><tspan x="0" y="0">on backside</tspan></text>
    </g>
    <g>
      <text transform="translate(67.42 70.46) rotate(90)" fill="#231f20" font-family="ArialMT, Arial" font-size="10"><tspan x="0" y="0">Tape down</tspan></text>
      <text transform="translate(56.62 68.53) rotate(90)" fill="#231f20" font-family="ArialMT, Arial" font-size="10"><tspan x="0" y="0">on backside</tspan></text>
    </g>
    <text transform="translate(278.31 260.26) rotate(-180)" fill="#231f20" font-family="ArialMT, Arial" font-size="25"><tspan x="0" y="0">WAYBILL</tspan></text>
    <text transform="translate(303.94 404.58) rotate(-180)" fill="#231f20" font-family="ArialMT, Arial" font-size="10"><tspan x="0" y="0">CARD_INFO</tspan></text>
    <text transform="translate(255.78 437.7) rotate(-180)" fill="#231f20" font-family="ArialMT, Arial" font-size="10"><tspan x="0" y="0">PHOTO_BOX</tspan></text>
    <g>
      <text transform="translate(281.18 323.22) rotate(-180)" fill="#231f20" font-family="ArialMT, Arial" font-size="10"><tspan x="0" y="0">When Empty - Return To:</tspan></text>
      <text transform="translate(281.18 312.42) rotate(-180)" fill="#231f20" font-family="ArialMT, Arial" font-size="10"><tspan x="0" y="0">____________________</tspan></text>
    </g>
    <text transform="translate(595.7 140.66) rotate(-180)" fill="#231f20" font-family="ArialMT, Arial" font-size="12"><tspan x="0" y="0">1st Fold</tspan></text>
    <text transform="translate(648.28 71.89) rotate(90)" fill="#231f20" font-family="ArialMT, Arial" font-size="12"><tspan x="0" y="0">2nd Fold</tspan></text>
    <g>
      <line x1="566.14" y1="237.45" x2="567.1" y2="241.86" fill="#231f20"/>
      <line x1="568.06" y1="237.45" x2="567.1" y2="241.86" fill="#231f20"/>
    </g>
    <text transform="translate(594.2 225.72) rotate(-180)" fill="#231f20" font-family="ArialMT, Arial" font-size="10"><tspan x="0" y="0">Fold to Here</tspan></text>
    <text transform="translate(476.56 71.89) rotate(90)" fill="#231f20" font-family="ArialMT, Arial" font-size="12"><tspan x="0" y="0">2nd Fold</tspan></text>
    <g>
      <text transform="translate(727.3 70.46) rotate(90)" fill="#231f20" font-family="ArialMT, Arial" font-size="10"><tspan x="0" y="0">Tape down</tspan></text>
      <text transform="translate(716.5 68.53) rotate(90)" fill="#231f20" font-family="ArialMT, Arial" font-size="10"><tspan x="0" y="0">on backside</tspan></text>
    </g>
    <g>
      <text transform="translate(409.42 70.46) rotate(90)" fill="#231f20" font-family="ArialMT, Arial" font-size="10"><tspan x="0" y="0">Tape down</tspan></text>
      <text transform="translate(398.62 68.53) rotate(90)" fill="#231f20" font-family="ArialMT, Arial" font-size="10"><tspan x="0" y="0">on backside</tspan></text>
    </g>
    <text transform="translate(620.31 260.26) rotate(-180)" fill="#231f20" font-family="ArialMT, Arial" font-size="25"><tspan x="0" y="0">WAYBILL</tspan></text>
    <text transform="translate(645.94 404.58) rotate(-180)" fill="#231f20" font-family="ArialMT, Arial" font-size="10"><tspan x="0" y="0">CARD_INFO</tspan></text>
    <text transform="translate(597.78 437.7) rotate(-180)" fill="#231f20" font-family="ArialMT, Arial" font-size="10"><tspan x="0" y="0">PHOTO_BOX</tspan></text>
    <g>
      <text transform="translate(623.18 323.22) rotate(-180)" fill="#231f20" font-family="ArialMT, Arial" font-size="10"><tspan x="0" y="0">When Empty - Return To:</tspan></text>
      <text transform="translate(623.18 312.42) rotate(-180)" fill="#231f20" font-family="ArialMT, Arial" font-size="10"><tspan x="0" y="0">____________________</tspan></text>
    </g>
    <text transform="translate(367.5 471.94)" fill="#231f20" font-family="ArialMT, Arial" font-size="12"><tspan x="0" y="0">1st Fold</tspan></text>
    <text transform="translate(314.92 540.71) rotate(-90)" fill="#231f20" font-family="ArialMT, Arial" font-size="12"><tspan x="0" y="0">2nd Fold</tspan></text>
    <g>
      <line x1="397.06" y1="375.15" x2="396.1" y2="370.74" fill="#231f20"/>
      <line x1="395.14" y1="375.15" x2="396.1" y2="370.74" fill="#231f20"/>
    </g>
    <text transform="translate(369 386.88)" fill="#231f20" font-family="ArialMT, Arial" font-size="10"><tspan x="0" y="0">Fold to Here</tspan></text>
    <text transform="translate(486.64 540.71) rotate(-90)" fill="#231f20" font-family="ArialMT, Arial" font-size="12"><tspan x="0" y="0">2nd Fold</tspan></text>
    <g>
      <text transform="translate(235.9 542.14) rotate(-90)" fill="#231f20" font-family="ArialMT, Arial" font-size="10"><tspan x="0" y="0">Tape down</tspan></text>
      <text transform="translate(246.7 544.06) rotate(-90)" fill="#231f20" font-family="ArialMT, Arial" font-size="10"><tspan x="0" y="0">on backside</tspan></text>
    </g>
    <g>
      <text transform="translate(553.78 542.14) rotate(-90)" fill="#231f20" font-family="ArialMT, Arial" font-size="10"><tspan x="0" y="0">Tape down</tspan></text>
      <text transform="translate(564.58 544.06) rotate(-90)" fill="#231f20" font-family="ArialMT, Arial" font-size="10"><tspan x="0" y="0">on backside</tspan></text>
    </g>
    <text transform="translate(342.89 352.34)" fill="#231f20" font-family="ArialMT, Arial" font-size="25"><tspan x="0" y="0">WAYBILL</tspan></text>
    <text transform="translate(317.26 208.02)" fill="#231f20" font-family="ArialMT, Arial" font-size="10"><tspan x="0" y="0">CARD_INFO</tspan></text>
    <text transform="translate(365.42 174.9)" fill="#231f20" font-family="ArialMT, Arial" font-size="10"><tspan x="0" y="0">PHOTO_BOX</tspan></text>
    <g>
      <text transform="translate(340.02 289.38)" fill="#231f20" font-family="ArialMT, Arial" font-size="10"><tspan x="0" y="0">When Empty - Return To:</tspan></text>
      <text transform="translate(340.02 300.18)" fill="#231f20" font-family="ArialMT, Arial" font-size="10"><tspan x="0" y="0">____________________</tspan></text>
    </g>
  </g>
  <g id="Structure">
    <polyline points="310.6 144.3 310.6 468.3 139.6 468.3 139.6 144.3 54.1 144.3 54.1 45.3 139.6 45.3" fill="none" stroke="#231f20" stroke-linejoin="round" stroke-width=".25"/>
    <polyline points="310.6 45.3 396.1 45.3 396.1 144.3 310.6 144.3" fill="none" stroke="#231f20" stroke-linejoin="round" stroke-width=".25"/>
    <line x1="310.6" y1="144.3" x2="310.6" y2="45.3" fill="none" stroke="#ed1c24" stroke-dasharray="7 2 2 2" stroke-linejoin="round" stroke-width=".25"/>
    <line x1="139.6" y1="144.3" x2="139.6" y2="45.3" fill="none" stroke="#ed1c24" stroke-dasharray="7 2 2 2" stroke-linejoin="round" stroke-width=".25"/>
    <line x1="139.6" y1="144.3" x2="310.6" y2="144.3" fill="none" stroke="#ed1c24" stroke-dasharray="7 2 2 2" stroke-linejoin="round" stroke-width=".25"/>
    <line x1="139.6" y1="342.3" x2="310.6" y2="342.3" fill="none" stroke="#ed1c24" stroke-linejoin="round" stroke-width=".25"/>
    <line x1="303.85" y1="243.3" x2="294.85" y2="243.3" fill="none" stroke="#231f20" stroke-linejoin="round" stroke-width=".25"/>
    <line x1="290.35" y1="243.3" x2="281.35" y2="243.3" fill="none" stroke="#231f20" stroke-linejoin="round" stroke-width=".25"/>
    <line x1="276.85" y1="243.3" x2="267.85" y2="243.3" fill="none" stroke="#231f20" stroke-linejoin="round" stroke-width=".25"/>
    <line x1="263.35" y1="243.3" x2="254.35" y2="243.3" fill="none" stroke="#231f20" stroke-linejoin="round" stroke-width=".25"/>
    <line x1="249.85" y1="243.3" x2="240.85" y2="243.3" fill="none" stroke="#231f20" stroke-linejoin="round" stroke-width=".25"/>
    <line x1="236.35" y1="243.3" x2="227.35" y2="243.3" fill="none" stroke="#231f20" stroke-linejoin="round" stroke-width=".25"/>
    <line x1="222.85" y1="243.3" x2="213.85" y2="243.3" fill="none" stroke="#231f20" stroke-linejoin="round" stroke-width=".25"/>
    <line x1="209.35" y1="243.3" x2="200.35" y2="243.3" fill="none" stroke="#231f20" stroke-linejoin="round" stroke-width=".25"/>
    <line x1="195.85" y1="243.3" x2="186.85" y2="243.3" fill="none" stroke="#231f20" stroke-linejoin="round" stroke-width=".25"/>
    <line x1="182.35" y1="243.3" x2="173.35" y2="243.3" fill="none" stroke="#231f20" stroke-linejoin="round" stroke-width=".25"/>
    <line x1="168.85" y1="243.3" x2="159.85" y2="243.3" fill="none" stroke="#231f20" stroke-linejoin="round" stroke-width=".25"/>
    <line x1="155.35" y1="243.3" x2="146.35" y2="243.3" fill="none" stroke="#231f20" stroke-linejoin="round" stroke-width=".25"/>
    <line x1="139.6" y1="45.3" x2="310.6" y2="45.3" fill="none" stroke="#231f20" stroke-linejoin="round" stroke-width=".25"/>
    <polyline points="652.6 144.3 652.6 468.3 481.6 468.3 481.6 144.3 396.1 144.3 396.1 45.3 481.6 45.3" fill="none" stroke="#231f20" stroke-linejoin="round" stroke-width=".25"/>
    <polyline points="652.6 45.3 738.1 45.3 738.1 144.3 652.6 144.3" fill="none" stroke="#231f20" stroke-linejoin="round" stroke-width=".25"/>
    <line x1="652.6" y1="144.3" x2="652.6" y2="45.3" fill="none" stroke="#ed1c24" stroke-dasharray="7 2 2 2" stroke-linejoin="round" stroke-width=".25"/>
    <line x1="481.6" y1="144.3" x2="481.6" y2="45.3" fill="none" stroke="#ed1c24" stroke-dasharray="7 2 2 2" stroke-linejoin="round" stroke-width=".25"/>
    <line x1="481.6" y1="144.3" x2="652.6" y2="144.3" fill="none" stroke="#ed1c24" stroke-dasharray="7 2 2 2" stroke-linejoin="round" stroke-width=".25"/>
    <line x1="481.6" y1="342.3" x2="652.6" y2="342.3" fill="none" stroke="#ed1c24" stroke-linejoin="round" stroke-width=".25"/>
    <line x1="645.85" y1="243.3" x2="636.85" y2="243.3" fill="none" stroke="#231f20" stroke-linejoin="round" stroke-width=".25"/>
    <line x1="632.35" y1="243.3" x2="623.35" y2="243.3" fill="none" stroke="#231f20" stroke-linejoin="round" stroke-width=".25"/>
    <line x1="618.85" y1="243.3" x2="609.85" y2="243.3" fill="none" stroke="#231f20" stroke-linejoin="round" stroke-width=".25"/>
    <line x1="605.35" y1="243.3" x2="596.35" y2="243.3" fill="none" stroke="#231f20" stroke-linejoin="round" stroke-width=".25"/>
    <line x1="591.85" y1="243.3" x2="582.85" y2="243.3" fill="none" stroke="#231f20" stroke-linejoin="round" stroke-width=".25"/>
    <line x1="578.35" y1="243.3" x2="569.35" y2="243.3" fill="none" stroke="#231f20" stroke-linejoin="round" stroke-width=".25"/>
    <line x1="564.85" y1="243.3" x2="555.85" y2="243.3" fill="none" stroke="#231f20" stroke-linejoin="round" stroke-width=".25"/>
    <line x1="551.35" y1="243.3" x2="542.35" y2="243.3" fill="none" stroke="#231f20" stroke-linejoin="round" stroke-width=".25"/>
    <line x1="537.85" y1="243.3" x2="528.85" y2="243.3" fill="none" stroke="#231f20" stroke-linejoin="round" stroke-width=".25"/>
    <line x1="524.35" y1="243.3" x2="515.35" y2="243.3" fill="none" stroke="#231f20" stroke-linejoin="round" stroke-width=".25"/>
    <line x1="510.85" y1="243.3" x2="501.85" y2="243.3" fill="none" stroke="#231f20" stroke-linejoin="round" stroke-width=".25"/>
    <line x1="497.35" y1="243.3" x2="488.35" y2="243.3" fill="none" stroke="#231f20" stroke-linejoin="round" stroke-width=".25"/>
    <line x1="481.6" y1="45.3" x2="652.6" y2="45.3" fill="none" stroke="#231f20" stroke-linejoin="round" stroke-width=".25"/>
    <polyline points="310.6 468.3 310.6 144.3 481.6 144.3 481.6 468.3 567.1 468.3 567.1 567.3 481.6 567.3" fill="none" stroke="#231f20" stroke-linejoin="round" stroke-width=".25"/>
    <polyline points="310.6 567.3 225.1 567.3 225.1 468.3 310.6 468.3" fill="none" stroke="#231f20" stroke-linejoin="round" stroke-width=".25"/>
    <line x1="310.6" y1="468.3" x2="310.6" y2="567.3" fill="none" stroke="#ed1c24" stroke-dasharray="7 2 2 2" stroke-linejoin="round" stroke-width=".25"/>
    <line x1="481.6" y1="468.3" x2="481.6" y2="567.3" fill="none" stroke="#ed1c24" stroke-dasharray="7 2 2 2" stroke-linejoin="round" stroke-width=".25"/>
    <line x1="481.6" y1="468.3" x2="310.6" y2="468.3" fill="none" stroke="#ed1c24" stroke-dasharray="7 2 2 2" stroke-linejoin="round" stroke-width=".25"/>
    <line x1="481.6" y1="270.3" x2="310.6" y2="270.3" fill="none" stroke="#ed1c24" stroke-linejoin="round" stroke-width=".25"/>
    <line x1="317.35" y1="369.3" x2="326.35" y2="369.3" fill="none" stroke="#231f20" stroke-linejoin="round" stroke-width=".25"/>
    <line x1="330.85" y1="369.3" x2="339.85" y2="369.3" fill="none" stroke="#231f20" stroke-linejoin="round" stroke-width=".25"/>
    <line x1="344.35" y1="369.3" x2="353.35" y2="369.3" fill="none" stroke="#231f20" stroke-linejoin="round" stroke-width=".25"/>
    <line x1="357.85" y1="369.3" x2="366.85" y2="369.3" fill="none" stroke="#231f20" stroke-linejoin="round" stroke-width=".25"/>
    <line x1="371.35" y1="369.3" x2="380.35" y2="369.3" fill="none" stroke="#231f20" stroke-linejoin="round" stroke-width=".25"/>
    <line x1="384.85" y1="369.3" x2="393.85" y2="369.3" fill="none" stroke="#231f20" stroke-linejoin="round" stroke-width=".25"/>
    <line x1="398.35" y1="369.3" x2="407.35" y2="369.3" fill="none" stroke="#231f20" stroke-linejoin="round" stroke-width=".25"/>
    <line x1="411.85" y1="369.3" x2="420.85" y2="369.3" fill="none" stroke="#231f20" stroke-linejoin="round" stroke-width=".25"/>
    <line x1="425.35" y1="369.3" x2="434.35" y2="369.3" fill="none" stroke="#231f20" stroke-linejoin="round" stroke-width=".25"/>
    <line x1="438.85" y1="369.3" x2="447.85" y2="369.3" fill="none" stroke="#231f20" stroke-linejoin="round" stroke-width=".25"/>
    <line x1="452.35" y1="369.3" x2="461.35" y2="369.3" fill="none" stroke="#231f20" stroke-linejoin="round" stroke-width=".25"/>
    <line x1="465.85" y1="369.3" x2="474.85" y2="369.3" fill="none" stroke="#231f20" stroke-linejoin="round" stroke-width=".25"/>
    <line x1="481.6" y1="567.3" x2="310.6" y2="567.3" fill="none" stroke="#231f20" stroke-linejoin="round" stroke-width=".25"/>
  </g>
</svg>