<?xml version="1.0" encoding="UTF-8"?>
<svg id="Layer_1" xmlns="http://www.w3.org/2000/svg" version="1.1" viewBox="0 0 545.95 594.25">
  <!-- Generator: Adobe Illustrator 30.5.1, SVG Export Plug-In . SVG Version: 2.1.4 Build 3)  -->
  <defs>
    <style>
      .st0 {
        font-family: MyriadPro-Cond, 'Myriad Pro';
      }

      .st0, .st1, .st2, .st3, .st4, .st5, .st6, .st7 {
        isolation: isolate;
      }

      .st0, .st1, .st3 {
        font-size: 12px;
      }

      .st1, .st3, .st4, .st5, .st6, .st7 {
        font-family: ArialMT, Arial;
      }

      .st1, .st4, .st5, .st7 {
        fill: #0067b0;
      }

      .st8 {
        stroke-linecap: square;
        stroke-miterlimit: 10;
      }

      .st8, .st9 {
        stroke: #231f20;
      }

      .st8, .st9, .st10 {
        fill: none;
        stroke-width: .25px;
      }

      .st9, .st10 {
        stroke-linejoin: round;
      }

      .st10 {
        stroke: #ed1c24;
        stroke-dasharray: 30 8 8 8;
      }

      .st4 {
        font-size: 25px;
      }

      .st11 {
        fill: #c1c6c5;
      }

      .st5, .st6 {
        font-size: 10px;
      }

      .st7 {
        font-size: 18px;
      }
    </style>
  </defs>
  <g id="Structure">
    <polyline class="st9" points="243.73 99.13 243.73 423.12 72.73 423.12 72.73 99.13 .73 99.13 .73 .12 72.73 .12"/>
    <polyline class="st9" points="243.73 .12 315.73 .12 315.73 99.13 243.73 99.13"/>
    <line class="st10" x1="243.73" y1="99.13" x2="243.73" y2=".12"/>
    <line class="st10" x1="72.73" y1="99.13" x2="72.73" y2=".12"/>
    <line class="st10" x1="72.73" y1="99.13" x2="243.73" y2="99.13"/>
    <line class="st9" x1="236.98" y1="198.12" x2="227.98" y2="198.12"/>
    <line class="st9" x1="223.48" y1="198.12" x2="214.48" y2="198.12"/>
    <line class="st9" x1="209.98" y1="198.12" x2="200.98" y2="198.12"/>
    <line class="st9" x1="196.48" y1="198.12" x2="187.48" y2="198.12"/>
    <line class="st9" x1="182.98" y1="198.12" x2="173.98" y2="198.12"/>
    <line class="st9" x1="169.48" y1="198.12" x2="160.48" y2="198.12"/>
    <line class="st9" x1="155.98" y1="198.12" x2="146.98" y2="198.12"/>
    <line class="st9" x1="142.48" y1="198.12" x2="133.48" y2="198.12"/>
    <line class="st9" x1="128.98" y1="198.12" x2="119.98" y2="198.12"/>
    <line class="st9" x1="115.48" y1="198.12" x2="106.48" y2="198.12"/>
    <line class="st9" x1="101.98" y1="198.12" x2="92.98" y2="198.12"/>
    <line class="st9" x1="88.48" y1="198.12" x2="79.48" y2="198.12"/>
    <line class="st9" x1="72.73" y1=".12" x2="243.73" y2=".12"/>
    <polyline class="st9" points="302.23 495.12 302.23 171.12 473.23 171.12 473.23 495.12 545.23 495.12 545.23 594.12 473.23 594.12"/>
    <polyline class="st9" points="302.23 594.12 230.23 594.12 230.23 495.12 302.23 495.12"/>
    <line class="st10" x1="302.23" y1="495.12" x2="302.23" y2="594.12"/>
    <line class="st10" x1="473.23" y1="495.12" x2="473.23" y2="594.12"/>
    <line class="st10" x1="473.23" y1="495.12" x2="302.23" y2="495.12"/>
    <line class="st9" x1="308.98" y1="396.12" x2="317.98" y2="396.12"/>
    <line class="st9" x1="322.48" y1="396.12" x2="331.48" y2="396.12"/>
    <line class="st9" x1="335.98" y1="396.12" x2="344.98" y2="396.12"/>
    <line class="st9" x1="349.48" y1="396.12" x2="358.48" y2="396.12"/>
    <line class="st9" x1="362.98" y1="396.12" x2="371.98" y2="396.12"/>
    <line class="st9" x1="376.48" y1="396.12" x2="385.48" y2="396.12"/>
    <line class="st9" x1="389.98" y1="396.12" x2="398.98" y2="396.12"/>
    <line class="st9" x1="403.48" y1="396.12" x2="412.48" y2="396.12"/>
    <line class="st9" x1="416.98" y1="396.12" x2="425.98" y2="396.12"/>
    <line class="st9" x1="430.48" y1="396.12" x2="439.48" y2="396.12"/>
    <line class="st9" x1="443.98" y1="396.12" x2="452.98" y2="396.12"/>
    <line class="st9" x1="457.48" y1="396.12" x2="466.48" y2="396.12"/>
    <line class="st9" x1="473.23" y1="594.12" x2="302.23" y2="594.12"/>
    <line class="st9" x1="459.73" y1="340.74" x2="315.73" y2="340.74"/>
  </g>
  <g id="Other">
    <g class="st2">
      <g class="st2">
        <g class="st2">
          <g class="st2">
            <text class="st7" transform="translate(197.28 93.34) rotate(-180)"><tspan x="0" y="0">1st Fold</tspan></text>
          </g>
        </g>
      </g>
    </g>
    <g class="st2">
      <g class="st2">
        <g class="st2">
          <g class="st2">
            <text class="st1" transform="translate(239.41 26.72) rotate(90)"><tspan x="0" y="0">2nd Fold</tspan></text>
          </g>
        </g>
      </g>
    </g>
    <g class="st2">
      <g class="st2">
        <g class="st2">
          <g class="st2">
            <text class="st1" transform="translate(67.69 26.72) rotate(90)"><tspan x="0" y="0">2nd Fold</tspan></text>
          </g>
        </g>
      </g>
    </g>
    <g>
      <g class="st2">
        <g class="st2">
          <g class="st2">
            <g class="st2">
              <text class="st5" transform="translate(304.93 25.29) rotate(90)"><tspan x="0" y="0">Tape down</tspan></text>
            </g>
          </g>
        </g>
      </g>
      <g class="st2">
        <g class="st2">
          <g class="st2">
            <g class="st2">
              <text class="st5" transform="translate(294.13 23.35) rotate(90)"><tspan x="0" y="0">on backside</tspan></text>
            </g>
          </g>
        </g>
      </g>
    </g>
    <g>
      <g class="st2">
        <g class="st2">
          <g class="st2">
            <g class="st2">
              <text class="st5" transform="translate(14.05 25.29) rotate(90)"><tspan x="0" y="0">Tape down</tspan></text>
            </g>
          </g>
        </g>
      </g>
      <g class="st2">
        <g class="st2">
          <g class="st2">
            <g class="st2">
              <text class="st5" transform="translate(3.25 23.35) rotate(90)"><tspan x="0" y="0">on backside</tspan></text>
            </g>
          </g>
        </g>
      </g>
    </g>
    <g>
      <rect class="st11" x="128.97" y="178.03" width="58.51" height="12.24"/>
      <polyline class="st8" points="187.48 178.03 128.97 178.03 128.97 190.26 187.48 190.26 187.48 178.03"/>
      <g>
        <line class="st8" x1="158.23" y1="190.26" x2="158.23" y2="193.15"/>
        <line class="st8" x1="157.26" y1="192.28" x2="158.23" y2="196.68"/>
        <line class="st8" x1="159.19" y1="192.28" x2="158.23" y2="196.68"/>
        <line class="st8" x1="159.19" y1="192.28" x2="157.26" y2="192.28"/>
      </g>
      <g class="st2">
        <g class="st2">
          <g class="st2">
            <g class="st2">
              <text class="st5" transform="translate(185.32 180.57) rotate(-180)"><tspan x="0" y="0">Fold to Here</tspan></text>
            </g>
          </g>
        </g>
      </g>
    </g>
    <g class="st2">
      <g class="st2">
        <g class="st2">
          <g class="st2">
            <text class="st4" transform="translate(211.44 222.09) rotate(-180)"><tspan x="0" y="0">WAYBILL</tspan></text>
          </g>
        </g>
      </g>
    </g>
    <g class="st2">
      <g class="st2">
        <g class="st2">
          <g class="st2">
            <text class="st7" transform="translate(348.67 502.36)"><tspan x="0" y="0">1st Fold</tspan></text>
          </g>
        </g>
      </g>
    </g>
    <g class="st2">
      <g class="st2">
        <g class="st2">
          <g class="st2">
            <text class="st1" transform="translate(304.39 567.55) rotate(-90)"><tspan x="0" y="0">2nd Fold</tspan></text>
          </g>
        </g>
      </g>
    </g>
    <g class="st2">
      <g class="st2">
        <g class="st2">
          <g class="st2">
            <text class="st1" transform="translate(476.11 567.55) rotate(-90)"><tspan x="0" y="0">2nd Fold</tspan></text>
          </g>
        </g>
      </g>
    </g>
    <g>
      <g class="st2">
        <g class="st2">
          <g class="st2">
            <g class="st2">
              <text class="st5" transform="translate(241.03 568.97) rotate(-90)"><tspan x="0" y="0">Tape down</tspan></text>
            </g>
          </g>
        </g>
      </g>
      <g class="st2">
        <g class="st2">
          <g class="st2">
            <g class="st2">
              <text class="st5" transform="translate(251.83 570.89) rotate(-90)"><tspan x="0" y="0">on backside</tspan></text>
            </g>
          </g>
        </g>
      </g>
    </g>
    <g>
      <g class="st2">
        <g class="st2">
          <g class="st2">
            <g class="st2">
              <text class="st5" transform="translate(531.91 568.97) rotate(-90)"><tspan x="0" y="0">Tape down</tspan></text>
            </g>
          </g>
        </g>
      </g>
      <g class="st2">
        <g class="st2">
          <g class="st2">
            <g class="st2">
              <text class="st5" transform="translate(542.71 570.89) rotate(-90)"><tspan x="0" y="0">on backside</tspan></text>
            </g>
          </g>
        </g>
      </g>
    </g>
    <g>
      <rect class="st11" x="358.47" y="403.99" width="58.51" height="12.24"/>
      <polyline class="st8" points="358.47 416.24 416.98 416.24 416.98 403.99 358.47 403.99 358.47 416.24"/>
      <g>
        <line class="st8" x1="387.73" y1="403.99" x2="387.73" y2="401.11"/>
        <line class="st8" x1="388.69" y1="401.99" x2="387.73" y2="397.58"/>
        <line class="st8" x1="386.76" y1="401.99" x2="387.73" y2="397.58"/>
        <line class="st8" x1="386.76" y1="401.99" x2="388.69" y2="401.99"/>
      </g>
      <g class="st2">
        <g class="st2">
          <g class="st2">
            <g class="st2">
              <text class="st5" transform="translate(360.63 413.71)"><tspan x="0" y="0">Fold to Here</tspan></text>
            </g>
          </g>
        </g>
      </g>
    </g>
    <g class="st2">
      <g class="st2">
        <g class="st2">
          <g class="st2">
            <text class="st4" transform="translate(334.52 372.18)"><tspan x="0" y="0">WAYBILL</tspan></text>
          </g>
        </g>
      </g>
    </g>
    <line class="st9" x1="72.73" y1="297.12" x2="243.73" y2="297.12"/>
    <line class="st9" x1="473.23" y1="297.12" x2="302.23" y2="297.12"/>
  </g>
  <g class="st2">
    <g class="st2">
      <g class="st2">
        <text class="st0" transform="translate(364.98 199.72)"><tspan x="0" y="0">PHOTO_BOX</tspan></text>
      </g>
    </g>
  </g>
  <g class="st2">
    <g class="st2">
      <g class="st2">
        <text class="st0" transform="translate(180.81 395.26) rotate(-180)"><tspan x="0" y="0">PHOTO_BOX</tspan></text>
      </g>
    </g>
  </g>
  <g class="st2">
    <g class="st2">
      <g class="st2">
        <text class="st3" transform="translate(308.09 233.72)"><tspan x="0" y="0">ROAD_NAME</tspan></text>
      </g>
    </g>
  </g>
  <g class="st2">
    <g class="st2">
      <g class="st2">
        <text class="st3" transform="translate(308.09 246.72)"><tspan x="0" y="0">CAR_NUMBER</tspan></text>
      </g>
    </g>
  </g>
  <g class="st2">
    <g class="st2">
      <g class="st2">
        <text class="st3" transform="translate(308.09 260.72)"><tspan x="0" y="0">TYPE</tspan></text>
      </g>
    </g>
  </g>
  <g class="st2">
    <g class="st2">
      <g class="st2">
        <text class="st3" transform="translate(418.09 275.72)"><tspan x="0" y="0">LENGTH</tspan></text>
      </g>
    </g>
  </g>
  <g class="st2">
    <g class="st2">
      <g class="st2">
        <text class="st3" transform="translate(308.09 274.73)"><tspan x="0" y="0">COLOR</tspan></text>
      </g>
    </g>
  </g>
  <g class="st2">
    <g class="st2">
      <g class="st2">
        <text class="st6" transform="translate(307.96 290.86)"><tspan x="0" y="0">NOTES</tspan></text>
      </g>
    </g>
  </g>
  <g class="st2">
    <g class="st2">
      <g class="st2">
        <text class="st3" transform="translate(238.09 362.74) rotate(-180)"><tspan x="0" y="0">ROAD_NAME</tspan></text>
      </g>
    </g>
  </g>
  <g class="st2">
    <g class="st2">
      <g class="st2">
        <text class="st3" transform="translate(238.09 349.74) rotate(-180)"><tspan x="0" y="0">CAR_NUMBER</tspan></text>
      </g>
    </g>
  </g>
  <g class="st2">
    <g class="st2">
      <g class="st2">
        <text class="st3" transform="translate(238.09 335.74) rotate(-180)"><tspan x="0" y="0">TYPE</tspan></text>
      </g>
    </g>
  </g>
  <g class="st2">
    <g class="st2">
      <g class="st2">
        <text class="st3" transform="translate(128.09 320.74) rotate(-180)"><tspan x="0" y="0">LENGTH</tspan></text>
      </g>
    </g>
  </g>
  <g class="st2">
    <g class="st2">
      <g class="st2">
        <text class="st3" transform="translate(238.09 321.74) rotate(-180)"><tspan x="0" y="0">COLOR</tspan></text>
      </g>
    </g>
  </g>
  <g class="st2">
    <g class="st2">
      <g class="st2">
        <text class="st6" transform="translate(237.96 306.85) rotate(-180)"><tspan x="0" y="0">NOTES</tspan></text>
      </g>
    </g>
  </g>
  <g class="st2">
    <text class="st3" transform="translate(320.47 321.71)"><tspan x="0" y="0">When Empty, Return To:</tspan></text>
  </g>
  <line class="st9" x1="85.74" y1="255.73" x2="229.74" y2="255.73"/>
  <g class="st2">
    <text class="st3" transform="translate(224.99 274.76) rotate(-180)"><tspan x="0" y="0">When Empty, Return To:</tspan></text>
  </g>
</svg>